<svg width="28" height="28" viewBox="0 0 28 28" fill="none" xmlns="http://www.w3.org/2000/svg">
<path fill-rule="evenodd" clip-rule="evenodd" d="M3 12C3 9.19974 3 7.79961 3.54496 6.73005C4.02434 5.78924 4.78924 5.02434 5.73005 4.54496C6.79961 4 8.19974 4 11 4H17.5C20.3003 4 21.7004 4 22.77 4.54496C23.7108 5.02434 24.4756 5.78924 24.955 6.73005C25.5 7.79961 25.5 9.19974 25.5 12V13.5C25.5 16.3003 25.5 17.7004 24.955 18.77C24.4756 19.7107 23.7108 20.4756 22.77 20.955C21.7004 21.5 20.3003 21.5 17.5 21.5H8.51776C8.18625 21.5 7.8683 21.6317 7.63389 21.8661L5.13389 24.3661C4.34642 25.1536 3 24.5959 3 23.4822V21.5V15.25V12ZM10.5 9C9.80965 9 9.25 9.55965 9.25 10.25C9.25 10.9403 9.80965 11.5 10.5 11.5H18C18.6904 11.5 19.25 10.9403 19.25 10.25C19.25 9.55965 18.6904 9 18 9H10.5ZM10.5 14C9.80965 14 9.25 14.5596 9.25 15.25C9.25 15.9404 9.80965 16.5 10.5 16.5H14.25C14.9404 16.5 15.5 15.9404 15.5 15.25C15.5 14.5596 14.9404 14 14.25 14H10.5Z" fill="#A675E5"/>
</svg>
