<svg width="32" height="32" viewBox="0 0 32 32" fill="white" xmlns="http://www.w3.org/2000/svg">
<g clip-path="url(#clip0_589_20219)">
<path d="M18.9317 16.0234L31.3919 3.56281C32.2027 2.7523 32.2027 1.44182 31.3919 0.631318C30.5813 -0.179189 29.2709 -0.179189 28.4604 0.631318L15.9998 13.0919L3.53966 0.631318C2.72877 -0.179189 1.41867 -0.179189 0.608165 0.631318C-0.202722 1.44182 -0.202722 2.7523 0.608165 3.56281L13.0683 16.0234L0.608165 28.4839C-0.202722 29.2944 -0.202722 30.6049 0.608165 31.4154C1.01209 31.8197 1.54319 32.0228 2.07391 32.0228C2.60463 32.0228 3.13535 31.8197 3.53966 31.4154L15.9998 18.9548L28.4604 31.4154C28.8647 31.8197 29.3954 32.0228 29.9261 32.0228C30.4568 32.0228 30.9875 31.8197 31.3919 31.4154C32.2027 30.6049 32.2027 29.2944 31.3919 28.4839L18.9317 16.0234Z" fill="white" fill-opacity="0.3"/>
</g>
<defs>
<clipPath id="clip0_589_20219">
<rect width="32" height="32" fill="white"/>
</clipPath>
</defs>
</svg>
