<svg width="24" height="24" viewBox="0 0 24 24" fill="none" xmlns="http://www.w3.org/2000/svg">
<path d="M17 6.6V6.6C17 4.61178 15.3882 3 13.4 3H7C4.79086 3 3 4.79086 3 7V17C3 19.2091 4.79086 21 7 21H13.4C15.3882 21 17 19.3882 17 17.4V17.4" stroke="#713EDD" stroke-width="1.6"/>
<path d="M9.24219 12.8672H7.8125V11.8789H9.24219C9.45312 11.8789 9.6224 11.8438 9.75 11.7734C9.88021 11.7031 9.97526 11.6068 10.0352 11.4844C10.0977 11.3594 10.1289 11.2188 10.1289 11.0625C10.1289 10.901 10.0977 10.7513 10.0352 10.6133C9.97526 10.4727 9.88021 10.3594 9.75 10.2734C9.6224 10.1875 9.45312 10.1445 9.24219 10.1445H8.27344V14.8438H7V9.15625H9.24219C9.69531 9.15625 10.0833 9.23828 10.4062 9.40234C10.7318 9.56641 10.9805 9.79167 11.1523 10.0781C11.3268 10.362 11.4141 10.6875 11.4141 11.0547C11.4141 11.4219 11.3268 11.7409 11.1523 12.0117C10.9805 12.2826 10.7318 12.4935 10.4062 12.6445C10.0833 12.793 9.69531 12.8672 9.24219 12.8672Z" fill="#713EDD"/>
<path d="M14.1483 14.8438H12.8983L12.9061 13.8594H14.1483C14.4321 13.8594 14.6717 13.7943 14.867 13.6641C15.0623 13.5312 15.2108 13.3359 15.3123 13.0781C15.4139 12.8177 15.4647 12.5013 15.4647 12.1289V11.8672C15.4647 11.5859 15.436 11.3385 15.3787 11.125C15.3215 10.9089 15.2368 10.7279 15.1248 10.582C15.0129 10.4362 14.8735 10.3268 14.7069 10.2539C14.5428 10.181 14.354 10.1445 14.1405 10.1445H12.8748V9.15625H14.1405C14.5259 9.15625 14.8774 9.22135 15.1952 9.35156C15.5155 9.48177 15.7915 9.66797 16.0233 9.91016C16.2577 10.1523 16.4386 10.4388 16.5662 10.7695C16.6939 11.1003 16.7577 11.4688 16.7577 11.875V12.1289C16.7577 12.5326 16.6939 12.901 16.5662 13.2344C16.4386 13.5651 16.2577 13.8516 16.0233 14.0938C15.7915 14.3333 15.5168 14.5182 15.1991 14.6484C14.8814 14.7786 14.5311 14.8438 14.1483 14.8438ZM13.6209 9.15625V14.8438H12.3475V9.15625H13.6209Z" fill="#713EDD"/>
<path d="M18.9684 9.15625V14.8438H17.695V9.15625H18.9684ZM21.2067 11.5547V12.5391H18.613V11.5547H21.2067ZM21.4567 9.15625V10.1445H18.613V9.15625H21.4567Z" fill="#713EDD"/>
</svg>
