<svg width="32" height="32" viewBox="0 0 32 32" fill="none" xmlns="http://www.w3.org/2000/svg">
<path d="M25.9742 3.50246C23.8495 1.66393 21.1999 0.921788 18.4614 0.593897C11.1674 -1.73257 4.66111 3.0789 1.82021 9.75049C-1.24176 16.9412 0.215331 24.9684 6.85473 29.4526C13.6331 34.0304 22.9495 32.1487 28.1487 26.1226C33.8316 19.5362 32.4291 9.08888 25.9742 3.50246ZM13.481 29.6324C9.63524 29.085 5.90441 26.719 3.95575 23.3454C2.2137 20.329 2.22829 16.5518 3.00933 13.2572C4.20961 8.19225 7.84183 3.62108 12.589 2.52701C12.5961 2.52735 12.6022 2.5294 12.6093 2.5294C14.3175 2.58001 16.1219 2.58296 17.8855 2.77368C18.0525 2.826 18.2194 2.87798 18.3877 2.93941C18.6656 3.04076 18.9089 3.02775 19.1124 2.94427C21.0153 3.26456 22.8323 3.87418 24.3826 5.09406C27.8121 7.79259 29.62 12.6586 29.5209 16.9206C29.3346 24.9541 21.0908 30.7153 13.481 29.6324Z" fill="white"/>
<path d="M11.5932 14.5115C13.1874 14.5115 13.1874 12.0391 11.5932 12.0391C9.9989 12.039 9.9989 14.5115 11.5932 14.5115Z" fill="white"/>
<path d="M20.1223 14.6364C21.717 14.6364 21.717 12.1641 20.1223 12.1641C18.5282 12.1641 18.5282 14.6364 20.1223 14.6364Z" fill="white"/>
<path d="M9.23405 20.5639C8.06753 21.6551 9.8195 23.3998 10.9825 22.312C13.9479 19.5387 17.7692 19.2452 20.731 22.1885C21.8626 23.3131 23.6115 21.5653 22.4792 20.44C18.5521 16.538 13.1801 16.8739 9.23405 20.5639Z" fill="white"/>
</svg>
