<svg width="32" height="32" viewBox="0 0 32 32" fill="none" xmlns="http://www.w3.org/2000/svg">
<path d="M25.9742 3.50246C23.8494 1.66393 21.1999 0.921788 18.4614 0.593897C11.1675 -1.73257 4.66125 3.0789 1.82034 9.75049C-1.24176 16.9412 0.215125 24.9684 6.85487 29.4526C13.6336 34.0304 22.9494 32.1487 28.1493 26.1226C33.8319 19.5362 32.4291 9.08888 25.9742 3.50246ZM13.4807 29.6324C9.6353 29.085 5.90406 26.719 3.95548 23.3454C2.21343 20.329 2.22802 16.5518 3.00892 13.2572C4.20934 8.19225 7.84156 3.62108 12.5887 2.52701C12.5959 2.52735 12.6017 2.5294 12.6089 2.5294C14.3176 2.58001 16.1215 2.58296 17.8852 2.77368C18.0522 2.826 18.2194 2.87798 18.3873 2.93941C18.6655 3.04076 18.9086 3.02775 19.1124 2.94427C21.0149 3.26456 22.8319 3.87418 24.3822 5.09406C27.8117 7.79259 29.6196 12.6586 29.5205 16.9206C29.3348 24.9541 21.0903 30.7153 13.4807 29.6324Z" fill="white"/>
<path d="M11.593 14.5115C13.1873 14.5115 13.1873 12.0391 11.593 12.0391C9.99895 12.039 9.99895 14.5115 11.593 14.5115Z" fill="white"/>
<path d="M20.1226 14.6364C21.7166 14.6364 21.7166 12.1641 20.1226 12.1641C18.5282 12.1641 18.5282 14.6364 20.1226 14.6364Z" fill="white"/>
<path d="M20.731 18.8307C17.7691 21.7737 13.9481 21.4802 10.9824 18.7069C9.81959 17.6195 8.06741 19.3642 9.23414 20.4554C13.1804 24.1461 18.5519 24.4812 22.479 20.5788C23.6114 19.4538 21.8625 17.7061 20.731 18.8307Z" fill="white"/>
</svg>
