<?xml version="1.0" standalone="no"?>
<!DOCTYPE svg PUBLIC "-//W3C//DTD SVG 20010904//EN"
 "http://www.w3.org/TR/2001/REC-SVG-20010904/DTD/svg10.dtd">
<svg version="1.0" xmlns="http://www.w3.org/2000/svg"
 width="1144.000000pt" height="1144.000000pt" viewBox="0 0 1144.000000 1144.000000"
 preserveAspectRatio="xMidYMid meet">
<metadata>
Created by potrace 1.14, written by Peter Selinger 2001-2017
</metadata>
<g transform="translate(0.000000,1144.000000) scale(0.100000,-0.100000)"
fill="#000000" stroke="none">
<path d="M5650 11406 c-30 -18 -230 -132 -445 -253 -214 -121 -578 -327 -807
-457 -230 -130 -606 -342 -835 -472 -230 -130 -487 -275 -570 -323 l-153 -86
0 -1067 c0 -588 2 -1068 5 -1068 2 0 154 85 337 188 183 104 542 307 798 452
256 145 668 378 915 518 248 140 534 302 638 360 l187 106 0 1068 c0 587 -3
1068 -7 1068 -5 0 -33 -16 -63 -34z"/>
<path d="M5720 8218 l0 -1063 228 -132 c233 -135 1501 -871 2222 -1291 223
-130 429 -249 458 -265 l52 -29 0 1064 0 1063 -353 205 c-534 310 -1019 591
-1467 852 -912 531 -1132 658 -1136 658 -2 0 -4 -478 -4 -1062z"/>
<path d="M5570 7041 c-74 -43 -380 -216 -680 -386 -300 -169 -626 -354 -725
-410 -99 -56 -472 -268 -830 -470 -1346 -762 -1555 -880 -1743 -987 l-192
-109 0 -1100 c0 -604 2 -1099 5 -1099 4 0 212 119 740 425 88 51 738 426 1445
835 707 408 1341 775 1410 815 69 39 217 125 330 190 113 65 247 143 298 172
l92 54 0 1075 c0 591 -3 1074 -7 1073 -5 0 -69 -35 -143 -78z"/>
<path d="M5722 3884 l3 -1075 1020 -590 c561 -324 1101 -636 1200 -693 1090
-631 2087 -1206 2091 -1206 2 0 4 495 4 1099 l0 1100 -192 109 c-106 60 -449
254 -763 432 -313 177 -635 360 -715 405 -80 45 -318 180 -530 300 -212 120
-434 246 -495 280 -179 102 -1062 602 -1350 765 -146 82 -268 150 -270 150 -3
0 -4 -484 -3 -1076z"/>
<path d="M5195 2500 c-280 -164 -530 -311 -555 -327 l-45 -28 -3 -1072 -2
-1073 565 0 565 0 0 1400 c0 770 -3 1400 -7 1400 -5 -1 -237 -135 -518 -300z"/>
</g>
</svg>
